<?xml version="1.0" standalone="no"?>
<!DOCTYPE svg PUBLIC "-//W3C//DTD SVG 20010904//EN"
 "http://www.w3.org/TR/2001/REC-SVG-20010904/DTD/svg10.dtd">
<svg version="1.0" xmlns="http://www.w3.org/2000/svg"
 width="300.000000pt" height="172.000000pt" viewBox="0 0 300.000000 172.000000"
 preserveAspectRatio="xMidYMid meet">
<metadata>
Created by potrace 1.10, written by Peter Selinger 2001-2011
</metadata>
<g transform="translate(0.000000,172.000000) scale(0.100000,-0.100000)"
fill="#ff9900" stroke="none">
<path d="M2443 1544 c-51 -17 -117 -91 -144 -162 -27 -71 -37 -204 -19 -267 7
-24 28 -62 47 -85 32 -37 39 -40 84 -40 28 0 62 6 77 14 103 54 178 236 153
371 -25 135 -103 201 -198 169z m82 -25 c94 -29 124 -232 56 -374 -37 -77 -88
-122 -148 -131 -54 -8 -84 10 -115 69 -18 35 -22 58 -21 138 0 87 3 103 33
168 51 111 116 154 195 130z"/>
<path d="M1900 1504 c-58 -49 -75 -96 -75 -210 0 -99 1 -104 40 -180 51 -99
104 -144 171 -144 54 0 92 18 128 60 97 116 34 392 -109 475 -57 34 -114 33
-155 -1z m179 -49 c93 -87 135 -267 87 -372 -21 -46 -77 -90 -113 -87 -13 1
-33 2 -46 3 -33 1 -95 66 -122 126 -54 121 -49 273 11 345 23 27 32 30 80 30
51 0 58 -3 103 -45z"/>
<path d="M2755 1137 c-140 -64 -228 -296 -161 -426 45 -87 175 -79 270 15 61
61 97 148 98 236 1 80 -12 116 -56 157 -31 29 -106 38 -151 18z m115 -27 c90
-37 93 -213 5 -332 -50 -68 -102 -100 -164 -101 -86 -1 -116 45 -108 164 8
123 64 222 149 265 46 23 69 24 118 4z"/>
<path d="M1640 1038 c-61 -42 -75 -70 -79 -165 -2 -48 2 -102 8 -122 31 -104
126 -191 208 -191 54 0 90 18 131 64 95 109 19 348 -132 417 -55 25 -96 24
-136 -3z m196 -70 c60 -65 84 -123 84 -211 0 -66 -3 -78 -30 -115 -36 -50 -93
-70 -151 -53 -51 15 -122 94 -144 160 -29 87 -10 221 37 258 55 44 141 27 204
-39z"/>
<path d="M2170 823 c-137 -68 -305 -297 -341 -464 -9 -42 -8 -58 6 -95 38 -99
144 -123 303 -69 l82 28 109 -27 c146 -35 277 -36 335 -3 58 33 81 69 80 125
-4 151 -205 426 -368 503 -79 37 -134 38 -206 2z m218 -34 c149 -85 319 -324
330 -461 4 -53 2 -60 -25 -87 -57 -56 -190 -64 -352 -21 -96 26 -143 25 -211
-2 -39 -15 -78 -22 -133 -22 l-79 -1 -35 39 c-33 36 -35 41 -31 95 11 145 170
380 313 462 72 41 150 41 223 -2z"/>
<path d="M2132 680 c-23 -22 -29 -69 -11 -87 8 -8 8 -17 0 -31 -16 -31 -14
-262 3 -284 18 -24 71 -23 95 1 17 17 18 32 15 147 -2 70 -8 132 -13 137 -5 5
-3 20 7 36 27 47 -7 100 -64 101 -5 0 -20 -9 -32 -20z m81 -31 c8 -30 -2 -48
-29 -55 -30 -8 -54 11 -54 41 0 29 7 35 46 35 24 0 33 -5 37 -21z m-5 -226
l-3 -138 -33 0 -33 0 0 133 c0 72 1 134 1 137 0 3 16 5 35 5 l36 0 -3 -137z"/>
<path d="M2273 568 c-19 -21 -21 -35 -23 -145 -1 -117 0 -124 23 -147 17 -17
31 -22 50 -19 45 9 56 31 59 123 3 71 6 85 21 88 15 3 17 -6 17 -86 0 -100 12
-122 66 -122 51 0 56 10 56 106 0 156 1 153 -37 191 -34 34 -38 35 -83 29 -58
-9 -71 -9 -102 -1 -19 5 -31 0 -47 -17z m222 -29 c18 -17 20 -33 20 -137 l0
-117 -30 0 -30 0 -5 95 c-3 52 -9 101 -13 108 -12 17 -41 15 -66 -5 -18 -16
-21 -31 -23 -108 l-3 -90 -30 0 -30 0 -3 138 -3 137 31 0 c24 0 30 -4 30 -22
l0 -21 23 20 c39 37 95 37 132 2z"/>
<path d="M628 634 c-5 -4 -8 -88 -8 -186 l0 -178 35 0 35 0 0 65 0 65 46 0
c56 0 99 24 119 66 28 59 11 125 -39 151 -33 17 -176 30 -188 17z m76 -34
c-31 -12 -37 -26 -36 -88 0 -41 5 -59 18 -69 16 -12 16 -14 0 -31 -10 -12 -17
-39 -19 -67 -1 -29 -7 -50 -15 -53 -10 -3 -12 29 -11 149 0 85 3 157 5 161 3
5 22 8 42 7 31 0 34 -2 16 -9z m119 -22 c40 -47 3 -148 -55 -148 -6 0 1 12 16
26 38 39 36 87 -6 126 l-31 29 29 -6 c16 -4 37 -16 47 -27z m-53 -18 c38 -38
14 -93 -47 -105 l-33 -7 0 66 0 66 30 0 c17 0 39 -9 50 -20z"/>
<path d="M943 535 c-26 -11 -33 -20 -33 -41 0 -23 3 -25 23 -19 12 4 42 8 67
9 41 1 45 -1 48 -25 3 -25 1 -27 -54 -31 -47 -4 -62 -10 -81 -32 -30 -35 -29
-68 1 -103 20 -23 32 -28 69 -28 48 0 90 26 81 50 -3 7 -1 16 5 20 14 8 14 48
1 61 -8 8 -7 19 1 38 11 23 10 30 -9 55 -22 30 -9 38 21 13 22 -19 24 -202 2
-202 -8 0 -15 -7 -15 -16 0 -11 8 -14 26 -12 l27 3 -2 108 c-1 60 -5 115 -8
123 -15 40 -109 56 -170 29z m12 -155 c-18 -20 -15 -70 5 -70 6 0 10 -4 10
-10 0 -15 -16 -12 -34 6 -21 21 -20 64 2 80 26 20 37 17 17 -6z m95 -15 c0
-46 -69 -69 -84 -28 -8 19 1 32 28 43 39 16 56 12 56 -15z"/>
<path d="M1650 538 c-13 -7 -31 -25 -39 -40 -24 -41 -6 -78 54 -110 64 -35 69
-63 10 -62 -22 0 -48 4 -57 8 -15 7 -18 3 -18 -17 0 -36 25 -51 86 -51 68 0
104 29 104 84 0 42 -17 61 -72 84 -45 19 -55 34 -35 53 12 13 21 14 48 4 17
-6 36 -11 40 -11 12 0 11 47 0 54 -22 14 -97 16 -121 4z m8 -42 c-16 -12 -16
-15 2 -44 11 -18 27 -32 35 -32 8 0 15 -4 15 -10 0 -5 6 -10 14 -10 44 0 61
-68 24 -94 -26 -19 -51 -21 -27 -3 9 7 19 22 23 34 7 22 3 26 -73 76 -40 25
-51 66 -25 92 9 9 19 13 23 10 3 -4 -2 -12 -11 -19z"/>
<path d="M1165 518 c4 -13 21 -72 39 -133 l32 -110 46 -3 45 -3 18 77 c14 58
15 78 6 84 -16 10 -4 77 15 84 16 6 23 -8 49 -101 29 -103 59 -94 91 27 10 39
22 70 26 70 12 0 -14 -117 -43 -192 -18 -44 -68 -23 -69 28 0 26 -25 77 -45
94 -17 14 -19 8 -6 -18 6 -9 17 -48 27 -85 l17 -68 45 3 45 3 38 130 c21 72
39 131 39 133 0 1 -17 2 -38 2 l-39 0 -18 -82 c-10 -46 -21 -89 -25 -96 -3 -6
-17 31 -30 83 l-24 95 -36 0 -37 0 -18 -82 c-10 -46 -21 -89 -25 -96 -3 -7
-16 30 -29 83 l-23 95 -39 0 c-36 0 -39 -2 -34 -22z m64 -50 c38 -128 56 -152
80 -110 10 15 10 16 11 0 0 -38 -19 -68 -42 -65 -19 3 -27 20 -54 110 -21 72
-27 107 -19 107 6 0 17 -19 24 -42z"/>
</g>
</svg>
